<?xml version="1.0" standalone="no"?>
<!DOCTYPE svg PUBLIC "-//W3C//DTD SVG 20010904//EN"
 "http://www.w3.org/TR/2001/REC-SVG-20010904/DTD/svg10.dtd">
<svg version="1.0" xmlns="http://www.w3.org/2000/svg"
 width="700.000000pt" height="700.000000pt" viewBox="0 0 700.000000 700.000000"
 preserveAspectRatio="xMidYMid meet">
<metadata>
Created by potrace 1.14, written by Peter Selinger 2001-2017
</metadata>
<g transform="translate(0.000000,700.000000) scale(0.100000,-0.100000)"
fill="#000000" stroke="none">
<path d="M4774 6193 c-30 -33 -241 -340 -390 -568 -97 -149 -317 -513 -444
-733 l-42 -74 -33 77 c-63 145 -153 235 -310 311 -84 41 -196 73 -256 74 -14
0 -28 3 -31 6 -10 9 21 122 46 172 35 67 110 136 188 171 73 34 82 42 73 71
-11 34 -42 34 -119 -3 -82 -39 -143 -89 -188 -155 -29 -42 -31 -43 -49 -26
-11 10 -25 37 -31 61 -13 55 -73 148 -122 191 -45 39 -113 74 -185 96 -63 19
-214 21 -293 5 -69 -14 -179 -49 -196 -62 -19 -15 -8 -50 39 -130 73 -124 173
-206 309 -254 59 -20 62 -23 30 -23 -57 0 -149 -27 -230 -67 -54 -27 -97 -60
-156 -118 -95 -94 -151 -183 -193 -310 -30 -88 -31 -89 -31 -44 0 34 -6 51
-23 67 l-23 22 -847 0 c-834 0 -847 0 -867 -20 -19 -19 -20 -33 -20 -304 l0
-284 -177 -308 -178 -309 0 -1357 c0 -1290 1 -1358 18 -1375 17 -17 150 -18
3000 -18 l2982 0 40 22 c22 12 57 39 77 60 78 81 68 6 173 1340 52 664 95
1215 95 1225 0 14 18 17 153 20 143 3 155 5 209 31 72 35 140 110 168 184 20
54 21 72 18 332 l-3 276 -29 54 c-15 30 -54 80 -85 112 -72 71 -103 79 -326
79 -91 0 -165 2 -165 4 0 3 16 40 36 83 128 277 175 389 169 410 -6 26 -31 34
-185 59 l-110 18 -27 58 c-14 33 -37 68 -51 79 -30 23 -83 25 -142 4 -23 -8
-44 -15 -45 -15 -2 0 -6 22 -10 49 -3 26 -15 62 -26 80 -29 48 -57 54 -134 30
-36 -11 -69 -18 -74 -15 -4 3 -13 31 -20 62 -8 35 -23 67 -38 82 -23 23 -30
24 -91 19 -37 -3 -74 -8 -84 -12 -18 -7 -23 3 -33 79 -4 32 -15 57 -32 74 -22
22 -30 24 -81 18 -32 -3 -71 -9 -87 -12 -29 -5 -31 -3 -42 39 -15 56 -55 104
-93 112 -18 4 -50 0 -81 -10 -60 -20 -69 -14 -69 47 0 67 -14 85 -99 128 -44
22 -85 40 -91 40 -6 0 -22 -12 -36 -27z m114 -103 c20 -12 32 -28 32 -41 0
-71 54 -149 104 -149 12 0 44 7 70 16 41 14 50 14 57 3 13 -20 29 -80 29 -106
0 -22 31 -63 48 -63 4 0 39 9 77 20 105 30 101 32 109 -57 9 -111 18 -118 125
-98 46 9 89 14 96 11 7 -2 18 -35 25 -73 17 -94 33 -117 75 -110 18 3 60 16
94 30 69 28 65 32 76 -68 4 -33 11 -68 16 -77 13 -24 57 -23 139 2 35 11 68
16 71 12 4 -4 17 -32 30 -62 12 -30 27 -61 33 -67 9 -10 202 -53 238 -53 4 0
8 -5 8 -10 0 -20 -112 -260 -122 -260 -5 0 -118 54 -251 119 -418 206 -739
392 -1154 668 l-262 174 91 129 c51 72 97 130 103 130 5 0 25 -9 43 -20z
m-2057 -294 c92 -20 158 -56 213 -117 45 -50 58 -76 34 -66 -156 66 -246 87
-367 87 -78 0 -81 -1 -87 -25 -10 -42 8 -52 114 -58 108 -6 217 -34 295 -74
l52 -27 -60 -19 c-92 -29 -210 -21 -299 21 -37 17 -86 46 -108 63 -41 33 -141
166 -133 179 2 4 37 14 77 23 130 29 179 32 269 13z m348 -360 c19 -21 22 -30
16 -70 -4 -25 -11 -49 -16 -51 -4 -3 -31 6 -60 20 -28 15 -83 35 -122 45 l-71
18 49 6 c28 4 75 18 105 31 71 29 72 29 99 1z m-227 -127 c242 -50 382 -271
369 -581 l-1 -28 -544 0 -545 0 6 38 c32 229 165 435 337 524 107 55 252 73
378 47z m503 -150 c201 -71 343 -228 370 -412 l7 -47 -209 0 -210 0 -6 98 c-8
125 -37 237 -86 327 l-38 72 56 -9 c31 -4 83 -18 116 -29z m1787 -260 c60 -13
139 -50 183 -86 32 -27 85 -91 85 -105 0 -4 -160 -8 -355 -8 -243 0 -355 3
-355 11 0 5 22 34 50 63 104 110 247 156 392 125z m-3216 -115 c-3 -9 -6 -92
-6 -185 l0 -169 -55 0 -55 0 0 -74 c0 -72 1 -75 25 -78 23 -3 12 -21 -158
-253 l-183 -250 -682 -3 c-375 -1 -682 1 -682 4 0 4 62 118 138 255 l137 249
48 0 47 0 0 75 0 75 -45 0 -45 0 0 185 0 185 761 0 c690 0 761 -1 755 -16z
m180 -812 c59 -106 104 -195 102 -198 -3 -2 -125 -3 -272 -2 l-268 3 154 212
c133 184 155 209 166 195 7 -9 60 -104 118 -210z m-646 -1602 l0 -1250 -700 0
-700 0 0 1250 0 1250 700 0 700 0 0 -1250z m813 468 c4 -430 7 -992 7 -1250
l0 -468 -345 0 -345 0 0 1250 0 1250 338 0 339 0 6 -782z m1377 -123 l0 -835
-290 0 -290 0 0 835 0 835 290 0 290 0 0 -835z m1448 -2 l2 -833 -295 0 -295
0 0 835 0 835 293 -2 292 -3 3 -832z"/>
<path d="M740 4355 l0 -75 75 0 75 0 0 75 0 75 -75 0 -75 0 0 -75z"/>
<path d="M1030 4355 l0 -75 75 0 75 0 0 75 0 75 -75 0 -75 0 0 -75z"/>
<path d="M1320 4355 l0 -75 75 0 75 0 0 75 0 75 -75 0 -75 0 0 -75z"/>
<path d="M1610 4355 l0 -75 75 0 75 0 0 75 0 75 -75 0 -75 0 0 -75z"/>
<path d="M866 2886 c-23 -78 -85 -201 -176 -350 -117 -192 -135 -236 -135
-336 0 -71 4 -94 26 -140 39 -82 90 -134 167 -172 56 -28 78 -33 137 -33 130
0 239 74 303 205 23 47 27 68 27 140 0 100 -18 144 -134 333 -89 147 -149 264
-175 348 l-22 66 -18 -61z"/>
</g>
</svg>
